<svg width="70" height="68" viewBox="0 0 70 68" fill="none" xmlns="http://www.w3.org/2000/svg">
<path d="M40.1162 23.6317C47.878 23.6317 55.5867 23.6107 63.2952 23.6444C65.6155 23.6545 67.7276 25.0824 68.6389 27.3695C69.0063 28.2917 69.1653 29.216 69.1594 30.1975C69.1435 32.8556 69.152 35.5138 69.1546 38.1719C69.1563 39.9064 68.5562 41.4342 67.3753 42.6647C66.2226 43.866 64.7736 44.5755 63.0609 44.5826C60.2965 44.5939 57.5306 44.6407 54.768 44.5689C52.3674 44.5065 50.4969 43.4127 49.3862 41.2412C49.0768 40.6363 48.9634 39.9136 48.8505 39.23C48.6958 38.2926 48.7212 37.3184 48.5006 36.4005C48.1434 34.9148 47.1372 33.8935 45.7397 33.3343C45.1496 33.0982 44.4653 33.0097 43.8229 33.0061C39.1624 32.9795 34.5016 33.0097 29.8412 32.9833C27.8624 32.9721 26.2066 32.2439 25.13 30.4959C24.3577 29.242 24.2941 27.9101 24.7956 26.5396C25.5504 24.4767 27.1577 23.6633 29.218 23.6421C32.8327 23.6048 36.448 23.6317 40.1162 23.6317ZM62.2405 33.5961C61.9992 32.832 61.4668 32.2891 60.8517 31.8245C59.5047 30.8072 57.202 30.9818 56.0044 32.3505C54.3469 34.2447 54.8822 36.5613 56.8946 37.749C58.0925 38.456 59.3787 38.3976 60.6274 37.6813C61.9983 36.895 62.8832 35.1072 62.2405 33.5961Z" fill="#525DDC"/>
<path d="M38.5123 37.6719C42.1654 37.7205 45.2081 40.704 44.8749 44.5619C44.7448 44.5696 44.6094 44.5846 44.4739 44.5846C31.6947 44.5857 18.9153 44.6205 6.13639 44.5586C3.29758 44.5449 0.616857 42.5939 0.231742 39.3444C0.176411 38.8775 0.129467 38.4064 0.127709 37.937C0.117815 35.2961 0.139791 32.655 0.118539 30.0143C0.0936894 26.9264 2.4831 24.1782 5.47884 23.7404C5.85619 23.6852 6.23884 23.6376 6.61918 23.6364C9.38415 23.6276 12.1494 23.6078 14.914 23.6402C16.723 23.6613 18.1692 24.4321 19.3268 25.8467C20.2918 27.0258 20.6067 28.3788 20.6438 29.83C20.6791 31.2116 20.6514 32.5948 20.6514 33.9773C20.6514 34.4361 20.6666 34.8954 20.6484 35.3534C20.6052 36.4401 21.5938 37.5039 22.6967 37.5635C23.5374 37.609 24.3791 37.6651 25.2205 37.6671C29.6338 37.6773 34.0471 37.6719 38.5123 37.6719ZM9.01702 30.218C8.20309 30.6516 7.70455 31.3474 7.34537 32.176C6.84141 33.3386 7.26958 35.1243 8.21841 35.9398C9.07673 36.6776 10.0403 37.0081 11.1661 36.9307C12.7348 36.8229 14.0254 35.7529 14.4615 34.3496C15.2209 31.906 13.0014 29.6838 10.9324 29.8131C10.3075 29.8522 9.69182 30.0375 9.01702 30.218Z" fill="#525DDC"/>
<path d="M28.7352 21.0791C27.0891 21.0791 25.4962 21.0791 23.8424 21.0791C23.8424 20.8691 23.8424 20.6814 23.8424 20.4937C23.8424 15.4954 23.8088 10.4968 23.8564 5.49892C23.8805 2.96714 25.6171 0.864245 28.0529 0.245618C28.6846 0.0851824 29.3578 0.0329184 30.0127 0.0284908C33.1852 0.00704773 36.3581 0.000922539 39.5306 0.0267072C41.0172 0.0387905 42.3518 0.533248 43.3757 1.64361C44.3982 2.75231 44.9898 4.08084 45.0021 5.60476C45.0258 8.52911 45.0282 11.454 45.0021 14.3783C44.9855 16.2503 44.2654 17.8744 42.978 19.2065C41.9982 20.2203 40.7569 20.8768 39.3408 20.9529C37.2451 21.0654 35.1422 21.0524 33.0421 21.0761C31.6244 21.0921 30.2063 21.0791 28.7352 21.0791ZM31.0639 9.97526C31.0317 10.0884 30.9952 10.2006 30.9679 10.3149C30.4302 12.5664 31.8535 14.5429 34.1742 14.7882C36.0764 14.9893 38.2562 13.5138 38.2309 11.1531C38.2101 9.20776 36.4779 7.59904 34.6443 7.58306C32.9815 7.56856 31.7811 8.37075 31.0639 9.97526Z" fill="#525DDC"/>
<path d="M41.0621 47.3497C41.685 47.7128 42.2912 48.0363 42.8401 48.4381C43.9726 49.2669 44.5882 50.4473 44.8899 51.7836C45.0339 52.4217 45.1 53.0894 45.1057 53.7445C45.1289 56.4388 45.1098 59.1334 45.1174 61.8279C45.1222 63.5683 44.6261 65.1439 43.4219 66.4041C42.6721 67.1886 41.7244 67.8237 40.5991 67.8615C37.8982 67.9521 35.1942 67.9539 32.4914 67.9838C31.4633 67.9952 30.4349 67.997 29.407 67.9835C26.5738 67.9463 24.5156 66.0041 24.0615 63.3227C23.9803 62.8438 23.9551 62.3506 23.9535 61.8639C23.9438 58.9744 23.9598 56.0849 23.9442 53.1955C23.936 51.6777 24.4493 50.369 25.4231 49.2281C26.7279 47.6994 28.3916 46.9311 30.4004 46.9269C33.2012 46.921 36.0025 46.8968 38.8026 46.9446C39.5436 46.9573 40.2806 47.2055 41.0621 47.3497ZM38.2017 56.2329C38.1736 55.1492 37.519 54.4088 36.7151 53.8561C35.074 52.7278 32.692 52.994 31.4626 54.7858C30.8978 55.6091 30.6754 56.5596 30.902 57.5094C31.4289 59.718 33.7112 60.8904 35.8646 60.1078C37.3824 59.5561 38.5995 57.9035 38.2017 56.2329Z" fill="#525DDC"/>
<path d="M60.432 0.0185909C61.3178 0.0185909 62.1538 -0.0287441 62.9826 0.0276472C65.2835 0.184188 67.088 1.20327 68.2611 3.22891C68.8348 4.21954 69.0768 5.28458 69.0604 6.44445C69.0208 9.24314 69.1392 12.0467 69.0198 14.8408C68.9162 17.264 67.8665 19.2545 65.605 20.4018C64.7128 20.8545 63.7487 21.0932 62.723 21.0859C59.8884 21.0657 57.0536 21.0938 54.219 21.0735C52.434 21.0607 50.8812 20.3998 49.6313 19.1399C48.6565 18.1572 48.0339 16.9551 47.8852 15.5526C47.8226 14.9625 47.7821 14.3671 47.7794 13.7739C47.768 11.2582 47.7546 8.7422 47.7813 6.2267C47.8001 4.44797 48.3777 2.873 49.7164 1.64702C50.6212 0.818389 51.6787 0.194208 52.9134 0.144299C55.3995 0.0438026 57.8901 0.0540389 60.432 0.0185909ZM62.1298 11.3211C62.0958 11.1003 62.0545 10.8804 62.0289 10.6587C61.8939 9.48976 61.2407 8.67768 60.2633 8.09C58.7878 7.20282 57.099 7.45422 55.8164 8.52979C54.9592 9.24861 54.5335 10.243 54.6096 11.3254C54.6911 12.4854 55.2099 13.5056 56.2406 14.1687C57.2661 14.8285 58.371 15.0273 59.5302 14.5934C61.0054 14.0412 61.8904 12.9918 62.1298 11.3211Z" fill="#525DDC"/>
<path d="M15.5104 21.0786C12.3243 21.0787 9.18808 21.0923 6.05203 21.0748C3.09491 21.0583 0.398553 18.6655 0.14368 15.761C-0.00698366 14.0441 0.0434382 12.3088 0.0194227 10.5816C0.00366 9.44785 0.0359237 8.31328 0.0119845 7.17982C-0.026101 5.3765 0.565343 3.81499 1.69744 2.42318C2.78383 1.08757 4.17649 0.338239 5.8677 0.129743C6.42132 0.0614929 6.98228 0.0259134 7.54012 0.0232679C9.93204 0.0119232 12.324 0.0155164 14.716 0.0194165C16.4158 0.0221886 17.9268 0.516069 19.1976 1.69444C20.538 2.9374 21.2767 4.44484 21.2858 6.2781C21.2998 9.05981 21.2993 11.8417 21.2868 14.6234C21.2732 17.6574 19.3388 20.1439 16.3261 20.9547C16.0777 21.0215 15.8159 21.0384 15.5104 21.0786ZM7.14292 9.02815C7.16028 9.60665 7.08472 10.2066 7.21227 10.7597C7.6087 12.4789 9.65058 13.7674 11.5437 13.3419C13.4217 12.9198 15.0525 11.0547 14.4881 8.95151C13.9537 6.9597 11.9616 5.84138 10.0369 6.23849C8.57205 6.54074 7.54836 7.43707 7.14292 9.02815Z" fill="#525DDC"/>
<path d="M67.0519 66.0998C66.102 66.9194 65.0747 67.5159 63.8793 67.7877C63.5123 67.8712 63.1379 67.9754 62.7664 67.9774C59.8066 67.9929 56.8462 68.02 53.8869 67.9764C50.9357 67.933 48.4995 65.9102 47.8912 62.9549C47.7935 62.4801 47.7814 61.9818 47.7794 61.4942C47.7691 58.9066 47.766 56.3189 47.7786 53.7313C47.784 52.6193 47.9735 51.5273 48.4837 50.5342C49.3549 48.8385 50.7123 47.6977 52.5861 47.2564C53.2044 47.1108 53.8545 47.0471 54.4909 47.0418C57.2202 47.019 59.9514 47.0914 62.6788 47.0161C65.6792 46.9333 67.9977 48.763 68.8072 51.4519C68.9496 51.9248 69.0333 52.4338 69.0372 52.927C69.0589 55.6563 69.0446 58.3859 69.0486 61.1153C69.0515 63.0314 68.3908 64.6801 67.0519 66.0998ZM58.8748 61.7105C59.1189 61.6399 59.3668 61.5806 59.6063 61.4969C61.2208 60.9326 62.4479 59.0472 61.8277 57.1496C61.389 55.8073 60.0523 54.5382 58.136 54.5591C55.972 54.5827 53.991 56.7216 54.5753 58.9919C55.055 60.8556 57.0109 62.056 58.8748 61.7105Z" fill="#525DDC"/>
<path d="M2.60977 66.5799C1.71686 65.8248 0.902499 65.0389 0.514839 63.9496C0.282113 63.2956 0.0509166 62.598 0.0387034 61.9161C-0.0133268 59.0113 -0.00862661 56.1048 0.0275161 53.1995C0.0448531 51.8059 0.555135 50.5675 1.44596 49.4765C2.58017 48.0875 4.10614 47.4262 5.79158 47.0379C5.9263 47.0069 6.07412 47.0322 6.21586 47.0322C9.15703 47.0321 12.0985 47.0053 15.0392 47.0434C16.5074 47.0625 17.8132 47.5972 18.9406 48.5616C20.5816 49.9652 21.3156 51.7484 21.2954 53.8919C21.271 56.4784 21.3179 59.0658 21.2798 61.6521C21.2537 63.4237 20.6316 65.0009 19.3476 66.24C18.1824 67.3644 16.7636 67.982 15.1171 67.9849C12.548 67.9894 9.97821 67.9504 7.41001 67.9984C5.65739 68.0311 4.08086 67.5823 2.60977 66.5799ZM10.7107 53.0949C10.134 53.2371 9.53923 53.3296 8.98437 53.5317C7.83309 53.9511 6.77792 55.6857 6.93276 56.8465C7.21266 58.945 8.65693 60.3666 10.8701 60.3316C12.8075 60.3009 14.8258 58.3584 14.3947 56.1225C14.0669 54.4223 12.547 53.1358 10.7107 53.0949Z" fill="#525DDC"/>
</svg>
